<svg width="64" height="64" viewBox="0 0 64 64" fill="none" xmlns="http://www.w3.org/2000/svg">
<rect width="64" height="64" rx="10" fill="#FFBF3F"/>
<path d="M46.1667 31.8848C46.1694 33.6554 45.4867 35.3354 44.2414 36.5941L33.7934 47.4768C33.532 47.7488 33.1827 47.8848 32.8334 47.8848C32.5 47.8848 32.1694 47.7621 31.908 47.5114C31.3774 47.0048 31.3614 46.1568 31.8707 45.6261L42.332 34.7301C42.7667 34.2901 43.084 33.7754 43.2787 33.2181H18.3333C17.5973 33.2181 17 32.6208 17 31.8848C17 31.1488 17.5973 30.5514 18.3333 30.5514L43.2627 30.5514C43.0627 29.9968 42.74 29.4901 42.308 29.0608L31.764 18.2634C31.2494 17.7381 31.26 16.8928 31.7854 16.3781C32.3134 15.8661 33.1587 15.8741 33.6707 16.4021L44.1987 27.1834C45.4494 28.4154 46.1534 30.1061 46.1667 31.8848Z" fill="#1E5A5D"/>
</svg>
