<svg width="64" height="64" viewBox="0 0 64 64" fill="none" xmlns="http://www.w3.org/2000/svg">
<rect width="64" height="64" rx="10" transform="matrix(-1 0 0 1 64 0)" fill="#FFBF3F"/>
<path d="M17.8333 31.8848C17.8306 33.6554 18.5133 35.3354 19.7586 36.5941L30.2066 47.4768C30.468 47.7488 30.8173 47.8848 31.1666 47.8848C31.5 47.8848 31.8306 47.7621 32.092 47.5114C32.6226 47.0048 32.6386 46.1568 32.1293 45.6261L21.668 34.7301C21.2333 34.2901 20.916 33.7754 20.7213 33.2181H45.6667C46.4027 33.2181 47 32.6208 47 31.8848C47 31.1488 46.4027 30.5514 45.6667 30.5514L20.7373 30.5514C20.9373 29.9968 21.26 29.4901 21.692 29.0608L32.236 18.2634C32.7506 17.7381 32.74 16.8928 32.2146 16.3781C31.6866 15.8661 30.8413 15.8741 30.3293 16.4021L19.8013 27.1834C18.5506 28.4154 17.8466 30.1061 17.8333 31.8848Z" fill="#1E5A5D"/>
</svg>
